<svg width="16" height="14" viewBox="0 0 16 14" fill="none" xmlns="http://www.w3.org/2000/svg">
<path fill-rule="evenodd" clip-rule="evenodd" d="M0 6.77832C0 6.52155 0.102002 6.27529 0.283567 6.09373C0.465131 5.91216 0.711385 5.81016 0.968156 5.81016H12.1852L8.02795 1.65483C7.84616 1.47304 7.74403 1.22648 7.74403 0.96938C7.74403 0.712284 7.84616 0.465719 8.02795 0.283925C8.20974 0.102131 8.45631 0 8.71341 0C8.9705 0 9.21707 0.102131 9.39886 0.283925L15.2078 6.09286C15.298 6.1828 15.3695 6.28963 15.4183 6.40725C15.4671 6.52488 15.4922 6.65097 15.4922 6.77832C15.4922 6.90566 15.4671 7.03176 15.4183 7.14938C15.3695 7.267 15.298 7.37384 15.2078 7.46377L9.39886 13.2727C9.21707 13.4545 8.9705 13.5566 8.71341 13.5566C8.45631 13.5566 8.20974 13.4545 8.02795 13.2727C7.84616 13.0909 7.74403 12.8443 7.74403 12.5873C7.74403 12.3302 7.84616 12.0836 8.02795 11.9018L12.1852 7.74647H0.968156C0.711385 7.74647 0.465131 7.64447 0.283567 7.46291C0.102002 7.28134 0 7.03509 0 6.77832Z" fill="white"/>
</svg>
