<svg width="30" height="30" viewBox="0 0 30 30" fill="none" xmlns="http://www.w3.org/2000/svg">
<path d="M25 16.2497C25 22.4997 20.625 25.6247 15.425 27.4372C15.1527 27.5295 14.8569 27.5251 14.5875 27.4247C9.375 25.6247 5 22.4997 5 16.2497V7.49971C5 7.16819 5.1317 6.85024 5.36612 6.61582C5.60054 6.3814 5.91848 6.24971 6.25 6.24971C8.75 6.24971 11.875 4.74971 14.05 2.84971C14.3148 2.62346 14.6517 2.49915 15 2.49915C15.3483 2.49915 15.6852 2.62346 15.95 2.84971C18.1375 4.76221 21.25 6.24971 23.75 6.24971C24.0815 6.24971 24.3995 6.3814 24.6339 6.61582C24.8683 6.85024 25 7.16819 25 7.49971V16.2497Z" stroke="#6B21A8" stroke-width="3" stroke-linecap="round" stroke-linejoin="round"/>
</svg>
