<svg width="30" height="30" viewBox="0 0 30 30" fill="none" xmlns="http://www.w3.org/2000/svg">
<path d="M19.3463 16.1125L21.2401 26.77C21.2613 26.8955 21.2437 27.0245 21.1896 27.1397C21.1355 27.255 21.0476 27.3509 20.9375 27.4148C20.8274 27.4787 20.7004 27.5074 20.5736 27.4972C20.4467 27.487 20.326 27.4382 20.2276 27.3575L15.7526 23.9988C15.5365 23.8374 15.2741 23.7502 15.0044 23.7502C14.7348 23.7502 14.4723 23.8374 14.2563 23.9988L9.77381 27.3563C9.67546 27.4368 9.55488 27.4855 9.42817 27.4957C9.30147 27.506 9.17465 27.4773 9.06463 27.4136C8.95462 27.3499 8.86665 27.2542 8.81245 27.1392C8.75826 27.0242 8.74041 26.8954 8.76131 26.77L10.6538 16.1125" stroke="#EA580C" stroke-width="3" stroke-linecap="round" stroke-linejoin="round"/>
<path d="M15 17.5C19.1421 17.5 22.5 14.1421 22.5 10C22.5 5.85786 19.1421 2.5 15 2.5C10.8579 2.5 7.5 5.85786 7.5 10C7.5 14.1421 10.8579 17.5 15 17.5Z" stroke="#EA580C" stroke-width="3" stroke-linecap="round" stroke-linejoin="round"/>
</svg>
