<svg width="139" height="26" viewBox="0 0 139 26" fill="none" xmlns="http://www.w3.org/2000/svg">
<path d="M41 2.16675L44.3475 8.94841L51.8333 10.0426L46.4167 15.3184L47.695 22.7717L41 19.2509L34.305 22.7717L35.5833 15.3184L30.1667 10.0426L37.6525 8.94841L41 2.16675Z" fill="#FACC15" stroke="#FACC15" stroke-width="2" stroke-linecap="round" stroke-linejoin="round"/>
<path d="M13 2.16675L16.3475 8.94841L23.8333 10.0426L18.4167 15.3184L19.695 22.7717L13 19.2509L6.305 22.7717L7.58333 15.3184L2.16666 10.0426L9.6525 8.94841L13 2.16675Z" fill="#FACC15" stroke="#FACC15" stroke-width="2" stroke-linecap="round" stroke-linejoin="round"/>
<path d="M69.5 2.16675L72.9762 8.94841L80.75 10.0426L75.125 15.3184L76.4525 22.7717L69.5 19.2509L62.5475 22.7717L63.875 15.3184L58.25 10.0426L66.0237 8.94841L69.5 2.16675Z" fill="#FACC15" stroke="#FACC15" stroke-width="2" stroke-linecap="round" stroke-linejoin="round"/>
<path d="M98 2.16675L101.348 8.94841L108.833 10.0426L103.417 15.3184L104.695 22.7717L98 19.2509L91.305 22.7717L92.5833 15.3184L87.1667 10.0426L94.6525 8.94841L98 2.16675Z" fill="#FACC15" stroke="#FACC15" stroke-width="2" stroke-linecap="round" stroke-linejoin="round"/>
<path d="M126 2.16675L129.348 8.94841L136.833 10.0426L131.417 15.3184L132.695 22.7717L126 19.2509L119.305 22.7717L120.583 15.3184L115.167 10.0426L122.653 8.94841L126 2.16675Z" fill="#FACC15" stroke="#FACC15" stroke-width="2" stroke-linecap="round" stroke-linejoin="round"/>
</svg>
